<?xml version="1.0" encoding="utf-8"?>
<!-- Generator: Adobe Illustrator 26.0.1, SVG Export Plug-In . SVG Version: 6.00 Build 0)  -->
<svg version="1.1" id="Layer_1" xmlns="http://www.w3.org/2000/svg" xmlns:xlink="http://www.w3.org/1999/xlink" x="0px" y="0px"
	 viewBox="0 0 88.7 48.7" style="enable-background:new 0 0 88.7 48.7;" xml:space="preserve">
<style type="text/css">
	.st0{fill:#616362;}
	.st1{fill:#799B3E;}
	.st2{fill:#E8EAC9;}
	.st3{fill:#8A8C8B;}
	.st4{fill:#B1B3B2;}
	.st5{fill:#8D8F8E;}
	.st6{fill:#95B354;}
	.st7{fill:#B0B1B0;}
	.st8{fill:#B3CB77;}
	.st9{fill:#D4E5A0;}
	.st10{fill:#626463;}
	.st11{fill:#616363;}
	.st12{fill:#616463;}
	.st13{fill:#616361;}
	.st14{fill:#FEFEFE;}
	.st15{fill:#FFFFFF;}
	.st16{fill:#FDFDFC;}
	.st17{fill:#F1F0EF;}
	.st18{fill:#FEFEFD;}
</style>
<g>
	<path class="st0" d="M88.8,37.2c-0.2,0.4-0.1,0.8-0.2,1.3c-0.2,1.4-0.4,2.8-0.7,4.1c0,0.1-0.1,0.2-0.3,0.2c-2.6,0-5.2,0-7.7,0
		c-0.2,0-0.2-0.1-0.2-0.2c0.5-2.3,0.8-4.6,0.9-7c0.2-7.4-2-14-6.8-19.6c-3.1-3.6-6.8-6.4-10.9-8.6c-5-2.8-10.3-4.7-15.9-6.1
		c-1.3-0.3-2.7-0.6-4.1-0.8c-0.2,0-0.3,0-0.5,0c-0.2,0-0.4,0-0.6,0c-0.1-0.1-0.3-0.1-0.4-0.1c-0.2-0.1-0.3,0-0.5-0.1
		c-0.1-0.1-0.3,0-0.4,0c0.1,0,0.2,0,0.3,0c0.2,0.1,0.4,0,0.5,0.1c0.1,0,0.3,0,0.4,0.1c0.1,0,0.3,0,0.4,0.1c5.4,1,10.6,2.6,15.6,5
		c3.7,1.7,7,3.9,10,6.6c3.3,3.1,5.8,6.8,7.1,11.1c0.6,1.9,0.9,3.8,1,5.8c0.2,3.9-0.4,7.7-1.6,11.4c-0.2,0.7-0.4,1.3-0.6,2
		c-0.1,0.2-0.2,0.3-0.4,0.3c-4.6,0-9.2,0-13.8,0c-4.9,0-9.9,0-14.8,0c-4.9,0-9.8,0-14.7,0c-4.9,0-9.9,0-14.8,0c-4.8,0-9.7,0-14.5,0
		c-0.3,0-0.4-0.1-0.4-0.3c0-2.4,0-4.8,0-7.1C0.4,35,0.5,35,0.8,35c17.9,0,35.8,0,53.7,0c2,0,3.8-0.6,5.4-1.7
		c3.4-2.4,5.5-5.8,6.1-9.9c0.5-3.3,0-6.6-1.6-9.6c-1.1-2.1-2.8-3.7-4.8-5.1c-3.4-2.5-7.1-4.2-11-5.6c-2.7-0.9-5.3-1.8-8.1-2.6
		c-0.3-0.1-0.5-0.2-0.8-0.3l0.3,0c0.1,0,0.3,0.1,0.4,0c-0.1,0-0.2,0.1-0.3-0.1h1.5c0.1,0.1,0.3,0,0.4,0c0.1,0,0.2,0,0.3,0h0.2
		c0.5,0.1,0.9,0,1.4,0.1c1.4,0.1,2.8,0.3,4.2,0.6c2.9,0.5,5.7,1.2,8.4,2c2.8,0.8,5.5,1.8,8.1,3c2.6,1.2,5.2,2.5,7.7,4
		c2.1,1.3,4.2,2.8,6.1,4.4c0.8,0.7,1.5,1.3,2.2,2c2,2.1,3.8,4.3,5.2,6.8c1.5,2.8,2.5,5.8,3,9c0.1,0.6,0.1,1.2,0.1,1.8v0.1
		c-0.1,0.1,0,0.2,0,0.4c0,0.1,0,0.3,0,0.4v1.6c-0.1,0.1,0,0.3,0,0.4c0,0.1,0,0.3,0,0.4L88.8,37.2z"/>
	<path class="st1" d="M0.3,10.7c1,0,2,0,3,0c0.3,0,0.4,0.1,0.4,0.3c0,1,0.1,2,0.1,3c0,0,0,0.1,0,0.1c0.1,0,0.1,0,0.1-0.1
		C5,12,6.8,10.9,9,10.4c1.6-0.4,3.3-0.3,4.9,0.3c2.4,0.8,3.9,2.5,4.5,4.9c0.3,1,0.4,2.1,0.4,3.1c0,4.2,0,8.4,0,12.6
		c0,0.4,0,0.4-0.4,0.4c-0.9,0-1.9,0-2.8,0c-0.3,0-0.3-0.1-0.3-0.3c0-4.1,0-8.1,0-12.2c0-1-0.1-1.9-0.4-2.9c-0.7-1.8-2-2.8-4-2.9
		c-1.2,0-2.3,0.1-3.4,0.6c-1.6,0.8-2.5,2.1-3,3.7C4.1,19,4,20.3,4,21.6c0,3.3,0,6.5,0,9.8c0,0.3-0.1,0.3-0.3,0.3c-1,0-1.9,0-2.9,0
		c-0.3,0-0.3-0.1-0.3-0.3c0-5.2,0-10.5,0-15.7c0-0.7,0-1.4-0.1-2.1c0-0.4-0.1-0.7-0.1-1.1v-0.6c0-0.1,0-0.2,0-0.4V10.7z"/>
	<path class="st2" d="M0.4,12.4c0,0.4,0,0.7,0.1,1.1c-0.1-0.1,0-0.3-0.1-0.5L0.4,12.4C0.4,12.4,0.4,12.4,0.4,12.4z"/>
	<path class="st6" d="M0.3,11.5c0.1,0.1,0,0.2,0.1,0.4c0,0,0,0-0.1,0V11.5z"/>
	<path class="st8" d="M0.3,11.9C0.4,11.9,0.4,11.9,0.3,11.9c0.1,0.1,0.1,0.2,0.1,0.3c0,0,0,0-0.1,0L0.3,11.9z"/>
	<path class="st9" d="M0.3,12.2L0.3,12.2c0.1,0.1,0.1,0.2,0.1,0.3H0.3L0.3,12.2z"/>
	<path class="st1" d="M32.5,22c-2.3,0-4.6,0-6.9,0c-0.2,0-0.3-0.1-0.3-0.3c0-0.8,0-1.5,0-2.3c0-0.3,0.1-0.3,0.3-0.3
		c3.4,0,6.7,0,10.1,0c0.1,0,0.2,0,0.3,0c0.1,0,0.1,0,0.1-0.1c-0.3-1.9-1-3.6-2.7-4.7c-1-0.7-2.2-0.9-3.3-0.8
		c-2.6,0.2-4.5,1.4-5.8,3.7c-0.8,1.4-1,3-0.8,4.6c0.1,1.5,0.6,2.9,1.6,4.2c1.9,2.4,5,3,7.1,2.3c1.1-0.4,2-1,2.7-1.9
		c0.3-0.4,0.3-0.4,0.7-0.1c0.8,0.6,1.6,1.2,2.4,1.7c0.2,0.1,0.2,0.2,0,0.4c-1.5,2-3.5,3-6,3.3c-2.3,0.3-4.6,0-6.7-1
		c-2.9-1.4-4.7-3.7-5.4-6.9c-0.7-3.4-0.3-6.7,1.8-9.6c1.5-2.1,3.7-3.3,6.2-3.8c1.7-0.4,3.5-0.4,5.2,0c2.7,0.6,4.5,2.3,5.6,4.8
		c0.7,1.6,1,3.3,1.1,5.1c0,0.5,0,0.9,0,1.4c0,0.2-0.1,0.3-0.3,0.3C37.1,22,34.8,22,32.5,22z"/>
	<path class="st0" d="M34.3,47.2c-0.2,0.2-0.4,0.3-0.6,0.3c-0.5,0.1-0.8-0.2-1-0.7c-0.1-0.4-0.1-0.8,0-1.2c0.1-0.8,0.9-1.1,1.6-0.5
		c0-0.2,0.1-0.3,0.3-0.2c0.2,0,0.1,0.2,0.1,0.3c0,0.8,0,1.6,0,2.4c0,0.4-0.2,0.8-0.6,0.9c-0.4,0.2-0.8,0.2-1.2-0.1
		c-0.1,0-0.2-0.1-0.1-0.2c0.1-0.1,0.1-0.2,0.2-0.1c0.8,0.4,1.3,0.1,1.3-0.8C34.3,47.3,34.3,47.3,34.3,47.2z"/>
	<path class="st0" d="M17.7,45.2c0-0.2,0-0.3,0.2-0.3c0.2,0,0.2,0.1,0.2,0.2c0,0.8,0,1.7,0,2.5c0,0.4-0.2,0.8-0.6,0.9
		c-0.4,0.2-0.8,0.1-1.2-0.1c-0.1,0-0.2-0.1-0.1-0.2c0.1-0.1,0.1-0.2,0.2-0.1c0.9,0.4,1.3,0.1,1.3-0.9c0,0,0,0,0-0.1
		c-0.2,0.1-0.3,0.2-0.5,0.2c-0.5,0.1-0.9-0.1-1.1-0.6c-0.1-0.4-0.1-0.8,0-1.2c0.2-0.7,0.9-1,1.5-0.5C17.6,45.1,17.6,45.1,17.7,45.2z
		"/>
	<path class="st0" d="M49.4,46.5c0,0.3,0,0.6,0,0.8c0,0.1,0,0.2-0.1,0.2c-0.1,0-0.2,0-0.2,0c-0.1-0.3-0.2-0.1-0.3,0
		c-0.2,0.1-0.3,0.1-0.5,0.1c-0.2,0-0.3,0-0.5-0.1c-0.3-0.1-0.4-0.4-0.4-0.7c0-0.3,0.2-0.5,0.5-0.6c0.3-0.1,0.6,0,0.9,0
		c0.2,0,0.2,0,0.2-0.2c0-0.2,0-0.5-0.3-0.6c-0.3-0.1-0.6-0.2-0.9,0.1c-0.1,0.1-0.2,0.1-0.3,0c-0.1-0.2,0-0.2,0.1-0.3
		c0.3-0.3,1.1-0.3,1.5,0c0.1,0.1,0.1,0.1,0.2,0.2c0,0.1,0.1,0.2,0.1,0.3C49.4,45.9,49.4,46.2,49.4,46.5L49.4,46.5z"/>
	<path class="st10" d="M12.1,46.3c-0.2,0-0.4,0-0.6,0c-0.2,0-0.2,0.1-0.2,0.2c0.1,0.6,0.7,0.9,1.3,0.5c0.1,0,0.1-0.2,0.2-0.1
		c0.1,0,0.1,0.1,0.2,0.2c0,0.1-0.1,0.1-0.1,0.2c-0.2,0.1-0.3,0.2-0.5,0.3c-0.2,0-0.4,0-0.6,0c-0.2-0.1-0.4-0.2-0.5-0.3
		C11.1,47,11,46.9,11,46.7c-0.1-0.3-0.1-0.7,0-1c0.1-0.5,0.5-0.7,0.9-0.8c0.5,0,0.8,0.3,1,0.7c0.2,0.6,0.1,0.7-0.5,0.7L12.1,46.3z"
		/>
	<path class="st11" d="M23.2,46.3c-0.2,0-0.4,0-0.6,0c-0.2,0-0.3,0.1-0.2,0.2c0.1,0.6,0.7,0.9,1.3,0.5c0.1-0.1,0.2-0.1,0.3,0
		c0.1,0.2-0.1,0.2-0.1,0.2c-0.7,0.5-1.6,0.2-1.8-0.7c-0.1-0.4-0.1-0.7,0.1-1.1c0.1-0.4,0.5-0.7,0.9-0.7c0.2,0,0.4,0.1,0.6,0.2
		c0.2,0.1,0.3,0.3,0.4,0.5c0.1,0.2,0.2,0.5,0.1,0.7c-0.1,0.3-0.4,0.1-0.6,0.1C23.3,46.4,23.3,46.3,23.2,46.3z"/>
	<path class="st10" d="M25.7,46.3c-0.2,0-0.4,0-0.6,0c-0.2,0-0.3,0.1-0.2,0.3c0.1,0.6,0.8,0.9,1.3,0.5c0.1-0.1,0.2-0.1,0.3,0
		c0.1,0.2-0.1,0.2-0.1,0.2c-0.7,0.5-1.7,0.2-1.8-0.7c-0.1-0.4,0-0.7,0.1-1.1c0.2-0.4,0.5-0.7,0.9-0.7c0.2,0,0.4,0,0.6,0.2
		c0.2,0.1,0.3,0.3,0.4,0.5c0.1,0.2,0.2,0.5,0.1,0.7c-0.1,0.2-0.4,0-0.6,0.1C25.9,46.3,25.8,46.3,25.7,46.3z"/>
	<path class="st0" d="M55.7,46.2c0,0.1,0,0.3,0,0.4c-0.1,0.6-0.5,0.9-1,0.9c-0.5,0-0.9-0.3-1-0.9c-0.1-0.3-0.1-0.6,0-1
		c0.1-0.6,0.5-0.9,1-0.9c0.5,0,0.9,0.4,1,0.9C55.7,46,55.6,46.1,55.7,46.2z"/>
	<path class="st0" d="M39,46.2c0-0.1,0-0.3,0-0.4c0.1-0.6,0.5-0.9,1-0.9c0.5,0,0.9,0.3,1,0.9c0.1,0.3,0.1,0.6,0,1
		c-0.1,0.5-0.5,0.9-1,0.9c-0.5,0-0.9-0.4-1-0.9C39,46.5,39,46.4,39,46.2z"/>
	<path class="st0" d="M13.9,45.2c0.3-0.2,0.5-0.3,0.8-0.3c0.5,0.1,0.8,0.3,0.8,0.8c0,0.6,0,1.1,0,1.7c0,0.2-0.1,0.2-0.2,0.2
		c-0.1,0-0.2,0-0.2-0.2c0-0.5,0-0.9,0-1.4c0-0.5-0.2-0.7-0.6-0.7c-0.4,0-0.6,0.2-0.6,0.7c0,0.5,0,0.9,0,1.4c0,0.2,0,0.2-0.2,0.2
		s-0.2-0.1-0.2-0.2c0-0.7,0-1.4,0-2.1c0-0.1-0.1-0.2,0.1-0.2C13.8,44.9,13.9,44.9,13.9,45.2z"/>
	<path class="st0" d="M19.8,45.2c0.2-0.2,0.4-0.2,0.5-0.3c0.6-0.1,1.1,0.2,1.1,0.8c0,0.5,0,1.1,0,1.6c0,0.1-0.1,0.2-0.2,0.2
		c-0.1,0-0.2,0-0.2-0.2c0-0.5,0-0.9,0-1.4c0-0.5-0.2-0.7-0.6-0.7c-0.4,0-0.6,0.2-0.7,0.7c0,0.5,0,0.9,0,1.4c0,0.1,0,0.2-0.2,0.2
		c-0.2,0-0.2-0.1-0.2-0.2c0-0.7,0-1.4,0-2.2c0-0.1-0.1-0.2,0.1-0.2C19.8,44.9,19.9,44.9,19.8,45.2z"/>
	<path class="st0" d="M30.6,45.2c0.3-0.3,0.7-0.4,1-0.3c0.4,0.1,0.6,0.4,0.6,0.8c0,0.6,0,1.1,0,1.7c0,0.2-0.1,0.2-0.2,0.2
		c-0.2,0-0.2-0.1-0.2-0.2c0-0.5,0-0.9,0-1.4c0-0.5-0.2-0.7-0.6-0.7c-0.4,0-0.6,0.2-0.6,0.7c0,0.4,0,0.9,0,1.3c0,0.1,0,0.3-0.2,0.3
		c-0.2,0-0.2-0.1-0.2-0.2c0-0.7,0-1.4,0-2.1c0-0.1-0.1-0.2,0.1-0.3C30.5,44.9,30.6,45,30.6,45.2z"/>
	<path class="st0" d="M41.8,45.2c0.3-0.2,0.6-0.3,0.9-0.3c0.4,0.1,0.7,0.4,0.7,0.8c0,0.6,0,1.1,0,1.7c0,0.2-0.1,0.1-0.2,0.2
		c-0.1,0-0.2,0-0.2-0.2c0-0.5,0-0.9,0-1.4c0-0.4-0.2-0.7-0.6-0.7c-0.4,0-0.6,0.2-0.7,0.7c0,0.5,0,0.9,0,1.3c0,0.1,0.1,0.3-0.2,0.3
		c-0.2,0-0.2-0.1-0.2-0.3c0-0.7,0-1.4,0-2.1c0-0.1-0.1-0.2,0.1-0.3C41.8,44.9,41.9,45,41.8,45.2z"/>
	<path class="st0" d="M57.9,47.2c0.1-0.2,0.2-0.2,0.4-0.1c0.3,0.2,0.6,0.2,1,0.1c0.2-0.1,0.3-0.2,0.3-0.5c0-0.2-0.2-0.3-0.4-0.3
		c-0.2,0-0.5,0-0.7-0.1c-0.3-0.1-0.5-0.2-0.5-0.5s0.1-0.6,0.4-0.7c0.4-0.2,0.9-0.2,1.3,0c0.1,0,0.2,0,0.1,0.2
		c-0.1,0.1-0.1,0.2-0.3,0.1c-0.2-0.1-0.5-0.2-0.8-0.1c-0.2,0.1-0.4,0.2-0.4,0.4c0,0.2,0.2,0.3,0.4,0.4c0.2,0,0.5,0,0.7,0.1
		c0.3,0.1,0.5,0.2,0.6,0.6c0,0.1,0,0.3-0.1,0.4c-0.1,0.1-0.2,0.2-0.3,0.3C59.2,47.7,58.3,47.6,57.9,47.2z"/>
	<path class="st0" d="M5.5,46.9c0.2-0.6,0.4-1.1,0.6-1.7c0.1-0.3,0.2-0.4,0.5-0.3c-0.1,0.3-0.2,0.7-0.4,1c-0.2,0.5-0.4,1-0.5,1.4
		c0,0.1-0.1,0.2-0.2,0.2c-0.1,0-0.2,0-0.2-0.2c-0.3-0.8-0.6-1.6-0.9-2.4c0.3-0.1,0.4,0,0.5,0.3C5,45.8,5.3,46.4,5.5,46.9L5.5,46.9z"
		/>
	<path class="st12" d="M50.2,46.3c0,0.2,0,0.4,0.1,0.5c0.2,0.4,0.7,0.6,1.1,0.3c0.1-0.1,0.2-0.1,0.3,0c0.1,0.2,0,0.2-0.1,0.3
		c-0.6,0.4-1.5,0.2-1.7-0.5c-0.1-0.4-0.1-0.8,0-1.2c0.2-0.7,1.2-1,1.8-0.5c0.1,0.1,0.2,0.1,0,0.2c-0.1,0.1-0.1,0.2-0.2,0.1
		C50.6,45,50.1,45.3,50.2,46.3z"/>
	<path class="st12" d="M1.2,46.3c0,0.2,0,0.3,0.1,0.5c0.2,0.5,0.7,0.7,1.1,0.3c0.2-0.1,0.2-0.1,0.3,0c0.1,0.2,0,0.2-0.1,0.2
		c-0.6,0.5-1.5,0.2-1.7-0.5c-0.1-0.4-0.1-0.8,0-1.2c0.2-0.7,1.2-1,1.8-0.5c0.1,0.1,0.1,0.1,0,0.2c-0.1,0.1-0.1,0.2-0.3,0.1
		c-0.3-0.3-0.6-0.3-0.9-0.1C1.3,45.5,1.2,45.8,1.2,46.3z"/>
	<path class="st12" d="M37.2,46.3c0,0.2,0,0.4,0.1,0.5c0.2,0.4,0.7,0.6,1.1,0.3c0.1-0.1,0.2-0.1,0.3,0c0.1,0.2,0,0.2-0.1,0.3
		c-0.6,0.5-1.5,0.2-1.7-0.6c-0.1-0.4-0.1-0.8,0-1.1c0.2-0.8,1.2-1,1.8-0.5c0.1,0.1,0.2,0.1,0,0.2c-0.1,0.1-0.1,0.2-0.2,0.1
		C37.7,45,37.2,45.3,37.2,46.3z"/>
	<path class="st0" d="M44.1,46.1c0-0.2,0-0.5,0-0.7c0-0.1,0-0.2-0.2-0.2c-0.1,0-0.2,0-0.2-0.1c0-0.1,0-0.2,0.2-0.1
		c0.1,0,0.2-0.1,0.2-0.2c0-0.1,0-0.3,0-0.4c0-0.1,0-0.2,0.2-0.2c0.1,0,0.2,0,0.2,0.2c0,0.1,0,0.1,0,0.2c0,0.4,0,0.4,0.4,0.4
		c0.1,0,0.2,0,0.2,0.1c0,0.1-0.1,0.2-0.2,0.1c-0.1,0-0.1,0-0.2,0c-0.2,0-0.2,0.1-0.2,0.2c0,0.4,0,0.8,0,1.3c0,0.3,0.1,0.5,0.4,0.5
		c0.1,0,0.1,0.1,0.1,0.2c0,0.1-0.1,0.1-0.2,0.1c-0.4,0-0.7-0.2-0.7-0.7C44.1,46.6,44.1,46.4,44.1,46.1z"/>
	<path class="st0" d="M52.3,46.1c0-0.2,0-0.3,0-0.5c0-0.2,0.1-0.4-0.2-0.4c-0.1,0-0.1-0.1-0.1-0.2c0-0.1,0-0.1,0.1-0.1
		c0.2,0,0.2-0.1,0.2-0.3c0-0.1,0-0.2,0-0.3c0-0.1,0-0.2,0.2-0.2c0.2,0,0.2,0,0.2,0.2c0,0.1,0,0.1,0,0.2c0,0.4,0,0.4,0.4,0.4
		c0.1,0,0.2,0,0.2,0.2c0,0.1-0.1,0.1-0.2,0.1c-0.4,0-0.4,0-0.4,0.4c0,0.4,0,0.7,0,1.1c0,0.3,0.1,0.4,0.4,0.4c0.1,0,0.2,0.1,0.2,0.2
		c0,0.2-0.1,0.1-0.2,0.1c-0.4,0-0.7-0.2-0.7-0.6C52.3,46.6,52.3,46.4,52.3,46.1z"/>
	<path class="st0" d="M8.6,45.4c0,0.4,0,0.9,0,1.3c0,0.3,0.1,0.5,0.4,0.5c0.1,0,0.1,0.1,0.1,0.2c0,0.1,0,0.1-0.2,0.2
		c-0.4,0-0.8-0.2-0.8-0.6c0-1,0-2,0-2.9c0-0.1,0.1-0.2,0.2-0.2c0.1,0,0.2,0,0.2,0.2C8.6,44.4,8.6,44.9,8.6,45.4z"/>
	<path class="st0" d="M27.5,45.2c0.4-0.3,0.8-0.4,1.2-0.2c0.1,0,0.2,0.1,0.1,0.2c-0.1,0.1-0.1,0.2-0.3,0.1c-0.5-0.3-0.9,0-1,0.6
		c0,0.5,0,0.9,0,1.4c0,0.2,0,0.2-0.2,0.2c-0.2,0-0.2-0.1-0.2-0.2c0-0.7,0-1.4,0-2.1c0-0.1-0.1-0.2,0.1-0.3
		C27.4,44.9,27.5,45,27.5,45.2z"/>
	<path class="st0" d="M46,45.2c0.4-0.3,0.8-0.4,1.2-0.2c0.1,0,0.2,0.1,0.1,0.2c-0.1,0.1-0.1,0.2-0.3,0.1c-0.5-0.3-1,0-1,0.6
		c0,0.4,0,0.9,0,1.3c0,0.1,0,0.3-0.2,0.3c-0.2,0-0.2-0.1-0.2-0.2c0-0.7,0-1.4,0-2.1c0-0.1-0.1-0.2,0.1-0.2C45.9,44.9,46,45,46,45.2z
		"/>
	<path class="st0" d="M56.5,45.2c0.4-0.3,0.8-0.4,1.2-0.2c0.1,0,0.2,0.1,0.1,0.2c-0.1,0.1-0.1,0.3-0.3,0.1c-0.5-0.3-0.9,0-1,0.6
		c0,0.5,0,0.9,0,1.4c0,0.1,0,0.2-0.2,0.2c-0.2,0-0.2-0.1-0.2-0.2c0-0.7,0-1.4,0-2.1c0-0.1-0.1-0.3,0.1-0.3
		C56.4,44.9,56.5,45,56.5,45.2z"/>
	<path class="st0" d="M19,46.2c0,0.4,0,0.7,0,1.1c0,0.1,0,0.2-0.2,0.2c-0.2,0-0.2-0.1-0.2-0.2c0-0.7,0-1.5,0-2.2
		c0-0.1,0-0.2,0.2-0.2c0.1,0,0.2,0,0.2,0.2C19,45.5,19,45.9,19,46.2z"/>
	<path class="st0" d="M29.6,46.2c0,0.4,0,0.7,0,1.1c0,0.1-0.1,0.2-0.2,0.2c-0.1,0-0.2,0-0.2-0.2c0-0.7,0-1.5,0-2.2
		c0-0.1,0-0.2,0.2-0.2c0.1,0,0.2,0,0.2,0.2C29.6,45.5,29.6,45.9,29.6,46.2z"/>
	<path class="st0" d="M7.4,46.2c0,0.4,0,0.7,0,1.1c0,0.1,0,0.2-0.2,0.2c-0.1,0-0.2,0-0.2-0.2c0-0.7,0-1.5,0-2.2
		c0-0.2,0.1-0.2,0.2-0.2c0.1,0,0.2,0.1,0.2,0.2C7.4,45.5,7.4,45.9,7.4,46.2z"/>
	<path class="st0" d="M3.9,46.2c0,0.4,0,0.7,0,1.1c0,0.1,0,0.2-0.2,0.2c-0.2,0-0.2-0.1-0.2-0.2c0-0.7,0-1.4,0-2.1
		c0-0.1,0-0.2,0.2-0.2c0.2,0,0.2,0.1,0.2,0.2C3.9,45.5,3.9,45.9,3.9,46.2z"/>
	<path class="st0" d="M29.6,44c0,0.2-0.1,0.2-0.2,0.2c-0.2,0-0.2-0.1-0.2-0.2c0-0.2,0.1-0.2,0.2-0.2C29.6,43.8,29.6,43.9,29.6,44z"
		/>
	<path class="st0" d="M18.8,44.2c-0.2,0-0.2,0-0.2-0.2c0-0.2,0.1-0.2,0.2-0.2c0.2,0,0.2,0.1,0.2,0.2C19,44.2,19,44.2,18.8,44.2z"/>
	<path class="st13" d="M7.4,44c0,0.2-0.1,0.2-0.2,0.2C7,44.2,7,44.1,7,44c0-0.2,0.1-0.2,0.2-0.2C7.4,43.8,7.4,43.9,7.4,44z"/>
	<path class="st13" d="M3.8,43.8C4,43.8,4,43.9,4,44c0,0.2-0.1,0.2-0.2,0.2c-0.2,0-0.2-0.1-0.2-0.2C3.5,43.8,3.6,43.8,3.8,43.8z"/>
	<path class="st14" d="M13.6,40.6c-0.5,0.4-0.9,0.4-1.4,0.3c-0.5-0.1-0.7-0.4-0.7-0.9c0-0.5,0.2-0.8,0.7-0.9c0.4-0.1,0.7,0,1.1,0
		c0.2,0,0.3-0.1,0.2-0.3c0-0.3-0.1-0.5-0.4-0.6c-0.4-0.1-0.8-0.1-1.1,0.1c-0.1,0.1-0.1,0.1-0.3,0c-0.2-0.2-0.2-0.3,0-0.4
		c0.4-0.3,1.4-0.3,1.8,0c0.2,0.2,0.3,0.5,0.3,0.8c0,0.6,0,1.3,0,1.9c0,0.1,0,0.3-0.2,0.3C13.6,41,13.4,41,13.6,40.6z"/>
	<path class="st14" d="M50.6,40.7c-0.4,0.4-0.8,0.4-1.3,0.3c-0.5-0.1-0.8-0.4-0.8-1c0-0.5,0.4-0.8,0.9-0.9c0.3,0,0.6,0,0.9,0
		c0.2,0,0.2,0,0.2-0.2c0-0.3,0-0.5-0.3-0.7c-0.4-0.1-0.8-0.2-1.1,0.1c-0.2,0.2-0.3,0.1-0.4,0c-0.2-0.2,0-0.2,0.1-0.3
		c0.4-0.3,1.4-0.3,1.8,0c0.2,0.2,0.3,0.5,0.3,0.7c0,0.6,0,1.3,0,1.9c0,0.1,0.1,0.3-0.2,0.3C50.7,41,50.5,41,50.6,40.7z"/>
	<path class="st14" d="M39.8,39.5c-0.3,0-0.6,0-0.8,0c-0.2,0-0.2,0.1-0.2,0.2c0.1,0.3,0.1,0.7,0.5,0.8c0.4,0.2,0.7,0.1,1-0.1
		c0.2-0.2,0.3,0,0.4,0.1c0.1,0.2-0.1,0.2-0.1,0.3c-0.8,0.7-2,0.2-2.2-0.8c-0.1-0.4-0.1-0.9,0.1-1.3c0.2-0.5,0.6-0.8,1.2-0.8
		c0.6,0,1,0.3,1.1,0.8c0,0.1,0,0.1,0.1,0.2c0.2,0.7,0.1,0.7-0.6,0.7H39.8z"/>
	<path class="st14" d="M25.4,40.6c-0.3,0.2-0.5,0.4-0.8,0.4c-0.8,0-1.2-0.4-1.2-1.2c0-0.6,0-1.2,0-1.8c0-0.2,0.1-0.2,0.3-0.2
		c0.2,0,0.2,0.1,0.2,0.2c0,0.6,0,1.1,0,1.7c0,0.3,0.1,0.7,0.4,0.8c0.5,0.2,1.1-0.1,1.1-0.7c0-0.6,0-1.1,0-1.7c0-0.2,0-0.3,0.2-0.3
		c0.2,0,0.2,0.1,0.2,0.3c0,0.9,0,1.7,0,2.6c0,0.1,0.1,0.3-0.2,0.3C25.5,41,25.4,40.9,25.4,40.6z"/>
	<path class="st14" d="M34.2,40.7C34,40.9,33.7,41,33.4,41c-0.7,0-1.1-0.4-1.1-1.1c0-0.7,0-1.3,0-1.9c0-0.2,0.1-0.2,0.2-0.2
		c0.1,0,0.2,0,0.2,0.2c0,0.5,0,1.1,0,1.6c0,0.6,0.3,1,0.8,1c0.5,0,0.8-0.3,0.8-1c0-0.5,0-1.1,0-1.6c0-0.2,0.1-0.2,0.2-0.2
		c0.2,0,0.2,0,0.2,0.2c0,0.9,0,1.8,0,2.6c0,0.1,0.1,0.3-0.1,0.3C34.3,41,34.2,41,34.2,40.7z"/>
	<path class="st14" d="M3.7,38.1c0.3-0.3,0.6-0.4,0.9-0.4c0.6,0,1.1,0.4,1.1,1c0,0.6,0,1.3,0,1.9C5.7,41,5.6,41,5.5,41
		c-0.1,0-0.2,0-0.2-0.2c0-0.6,0-1.1,0-1.7c0-0.7-0.4-1-1-0.8c-0.3,0.1-0.5,0.3-0.5,0.7c0,0.6,0,1.2,0,1.7c0,0.2,0,0.3-0.2,0.3
		c-0.2,0-0.2-0.1-0.2-0.3c0-0.9,0-1.7,0-2.6c0-0.1-0.1-0.3,0.2-0.3C3.6,37.8,3.8,37.8,3.7,38.1z"/>
	<path class="st14" d="M16,41c-0.4,0-0.8-0.1-1.1-0.3c-0.1-0.1-0.2-0.1,0-0.2c0.1-0.1,0.1-0.3,0.3-0.1c0.4,0.3,0.8,0.3,1.3,0.2
		c0.3-0.1,0.4-0.3,0.4-0.6c0-0.3-0.2-0.3-0.5-0.4c-0.2,0-0.4,0-0.6-0.1c-0.5-0.1-0.8-0.3-0.8-0.7c0-0.5,0.2-0.9,0.7-1
		c0.5-0.1,1-0.1,1.4,0.1c0.1,0,0.2,0.1,0.1,0.2c-0.1,0.1-0.1,0.3-0.4,0.2c-0.3-0.2-0.6-0.2-0.9-0.2c-0.3,0-0.5,0.2-0.5,0.5
		c0,0.3,0.2,0.4,0.5,0.4c0.3,0,0.5,0,0.8,0.1c0.4,0.1,0.6,0.3,0.6,0.6c0.1,0.5-0.1,0.8-0.5,1C16.6,41,16.3,41,16,41z"/>
	<path class="st14" d="M47.7,38.1c-0.1,0.3-0.3,0.4-0.6,0.2c-0.2-0.1-0.5-0.1-0.8-0.1c-0.3,0-0.5,0.2-0.5,0.5c0,0.3,0.2,0.4,0.5,0.4
		c0.2,0,0.4,0,0.7,0.1c0.5,0.1,0.7,0.3,0.8,0.6c0.1,0.5-0.1,0.9-0.6,1c-0.6,0.2-1.2,0.2-1.8-0.2c-0.1,0-0.3-0.1-0.1-0.2
		c0.1-0.1,0.1-0.3,0.4-0.1c0.4,0.3,0.8,0.3,1.2,0.2c0.3-0.1,0.4-0.3,0.4-0.5c0-0.3-0.2-0.4-0.5-0.4c-0.3,0-0.6,0-0.8-0.1
		c-0.4-0.1-0.6-0.3-0.6-0.6c0-0.4,0.1-0.8,0.5-0.9C46.6,37.7,47.2,37.7,47.7,38.1z"/>
	<path class="st14" d="M26.8,39.4c0-0.3,0-0.6,0.2-0.9c0.4-0.8,1.5-1,2.1-0.4c0.1,0.1,0.2,0.2,0,0.3c-0.1,0.1-0.2,0.2-0.3,0.1
		c-0.5-0.5-1.3-0.2-1.4,0.4c-0.1,0.3-0.1,0.7,0,1c0.2,0.6,0.9,0.9,1.4,0.4c0.2-0.2,0.3,0,0.4,0.1c0.2,0.2,0,0.2-0.1,0.3
		c-0.4,0.4-0.9,0.4-1.4,0.2c-0.5-0.2-0.7-0.7-0.8-1.2C26.8,39.6,26.8,39.5,26.8,39.4z"/>
	<path class="st15" d="M52.6,38.7c0,0.6,0,1.2,0,1.7c0,0.4-0.2,0.7-0.5,1c-0.2,0.1-0.2,0-0.3-0.1c-0.1-0.1-0.2-0.1-0.1-0.3
		c0.3-0.3,0.4-0.6,0.3-1c0-1,0-1.9,0-2.9c0-0.4,0-0.7-0.3-1c-0.2-0.1,0-0.2,0.1-0.3c0.1-0.1,0.1-0.2,0.3-0.1c0.3,0.3,0.5,0.6,0.5,1
		C52.6,37.5,52.6,38.1,52.6,38.7z"/>
	<path class="st14" d="M6.9,39.6c0-0.4,0-0.8,0-1.2c0-0.2,0-0.2-0.2-0.2c-0.1,0-0.2,0-0.2-0.2c0-0.2,0.1-0.2,0.2-0.2
		c0.2,0,0.2-0.1,0.2-0.2c0-0.2,0-0.5,0-0.7c0.1-0.4,0.6-0.7,1-0.5c0.1,0,0.1,0.2,0.1,0.2c0,0.1,0,0.2-0.1,0.2
		c-0.5,0.1-0.7,0.5-0.5,1c0,0.1,0.1,0.1,0.2,0.1c0.1,0,0.3,0,0.4,0C8,37.8,8,37.9,8,38c0,0.1,0,0.2-0.1,0.2c0,0,0,0,0,0
		c-0.5,0-0.5,0-0.5,0.5c0,0.7,0,1.3,0,2c0,0.2,0,0.3-0.2,0.3c-0.2,0-0.2-0.1-0.2-0.3C6.9,40.3,6.9,40,6.9,39.6z"/>
	<path class="st14" d="M43.8,38.7c0-0.6,0-1.1,0-1.7c0-0.4,0.2-0.7,0.5-1c0.1-0.1,0.2-0.1,0.3,0c0.1,0.1,0.3,0.1,0.1,0.3
		c-0.3,0.3-0.4,0.6-0.4,1c0,1,0,2,0,2.9c0,0.4,0.1,0.7,0.3,0.9c0.2,0.1,0,0.2-0.1,0.3c-0.1,0.1-0.2,0.2-0.3,0
		c-0.3-0.3-0.5-0.6-0.5-1C43.8,39.8,43.8,39.3,43.8,38.7z"/>
	<path class="st14" d="M18.4,39.3c0-0.3,0-0.6,0-0.9c0-0.2,0-0.2-0.2-0.2c-0.1,0-0.2,0-0.2-0.2c0-0.2,0.1-0.2,0.2-0.2
		c0.2,0,0.2,0,0.2-0.2c0-0.2,0-0.4,0-0.6c0-0.2,0.1-0.2,0.2-0.2c0.1,0,0.2,0,0.2,0.2c0,0.2,0,0.4,0,0.6c0,0.2,0.1,0.3,0.3,0.2
		c0.1,0,0.2,0,0.3,0c0.1,0,0.2,0.1,0.1,0.2c0,0.1,0,0.2-0.1,0.2c-0.2,0-0.4-0.1-0.5,0c-0.1,0.1,0,0.4,0,0.6c0,0.4,0,0.8,0,1.2
		c0,0.3,0.1,0.5,0.5,0.5c0.2,0,0.2,0.1,0.2,0.2c0,0.2-0.1,0.2-0.2,0.2c-0.6,0-0.9-0.2-0.9-0.9C18.4,39.8,18.4,39.6,18.4,39.3z"/>
	<path class="st14" d="M30.3,39.3c0-0.3,0-0.6,0-0.9c0-0.2,0-0.2-0.2-0.2c-0.1,0-0.2,0-0.2-0.2c0-0.2,0.1-0.2,0.2-0.2
		c0.2,0,0.2,0,0.2-0.2c0-0.2,0-0.3,0-0.5c0-0.2-0.1-0.3,0.2-0.3c0.3,0,0.2,0.2,0.2,0.3c0,0,0,0.1,0,0.1c0,0.5,0,0.5,0.5,0.5
		c0.1,0,0.2,0.1,0.2,0.2c0,0.1,0,0.2-0.2,0.2c-0.5,0-0.5,0-0.5,0.6c0,0.4,0,0.9,0,1.3c0,0.3,0.1,0.5,0.5,0.5c0.2,0,0.2,0.1,0.2,0.2
		c0,0.2-0.1,0.2-0.2,0.2c-0.6,0-0.9-0.3-0.9-0.9C30.3,39.8,30.3,39.6,30.3,39.3z"/>
	<path class="st14" d="M36.2,38.2c0.4-0.4,0.9-0.5,1.4-0.3c0.1,0,0.3,0.1,0.2,0.2c-0.1,0.1-0.1,0.4-0.4,0.2c-0.5-0.3-1.1,0-1.1,0.6
		c0,0.6,0,1.2,0,1.7c0,0.2,0,0.3-0.2,0.3c-0.2,0-0.2-0.1-0.2-0.3c0-0.9,0-1.7,0-2.6c0-0.1-0.1-0.3,0.2-0.3
		C36.1,37.8,36.3,37.9,36.2,38.2z"/>
	<path class="st14" d="M21,38.1c0.4-0.4,0.8-0.4,1.3-0.3c0.3,0.1,0.3,0.2,0.1,0.5c-0.1,0.1-0.1,0.1-0.2,0c-0.5-0.3-1.1,0-1.1,0.6
		c0,0.6,0,1.2,0,1.7c0,0.2-0.1,0.2-0.2,0.2c-0.2,0-0.2-0.1-0.2-0.2c0-0.9,0-1.7,0-2.6c0-0.1-0.1-0.3,0.2-0.3
		C21,37.8,21.1,37.9,21,38.1z"/>
	<path class="st14" d="M9.4,38.1c0.5-0.4,0.9-0.5,1.4-0.2c0.1,0,0.3,0.1,0.2,0.3c-0.1,0.1-0.1,0.4-0.4,0.2C10,38,9.4,38.3,9.4,39
		c0,0.6,0,1.1,0,1.7c0,0.2,0,0.3-0.2,0.3c-0.2,0-0.2-0.1-0.2-0.3c0-0.9,0-1.7,0-2.6c0-0.1,0-0.3,0.2-0.3C9.3,37.8,9.4,37.9,9.4,38.1
		z"/>
	<path class="st16" d="M1.7,39.3c0-0.5,0-0.9,0-1.4c0-0.2,0.1-0.2,0.2-0.2c0.1,0,0.2,0,0.2,0.2c0,0.9,0,1.9,0,2.8
		C2.2,41,2.1,41,2,41c-0.1,0-0.2,0-0.2-0.2C1.7,40.3,1.7,39.8,1.7,39.3z"/>
	<path class="st17" d="M2,36.4c0.2-0.1,0.2,0.1,0.3,0.3c0,0.3-0.1,0.2-0.3,0.3c-0.2,0-0.2-0.1-0.3-0.3C1.7,36.4,1.8,36.4,2,36.4z"/>
	<path class="st1" d="M62.1,18.8c-0.7-3.3-2.4-5.8-5.5-7.3c-2.5-1.2-5.2-1.5-7.9-0.9c-2.6,0.5-4.7,1.8-6.3,3.9
		c-2,2.7-2.4,5.8-1.8,9.1c0.6,3.2,2.4,5.6,5.3,7c2.5,1.3,5.1,1.5,7.8,1c2.3-0.4,4.2-1.4,5.8-3.1c1.9-2.1,2.7-4.6,2.8-7.4
		C62.3,20.3,62.3,19.5,62.1,18.8z M57.3,25.6c-1.2,1.8-2.9,2.7-5,3c-1.8,0.2-3.4-0.1-4.9-1c-1.8-1.1-2.8-2.8-3.1-4.9
		c-0.1-0.5-0.1-1.1-0.1-1.8c0-1.9,0.6-3.8,2.1-5.3c1.1-1.2,2.5-1.8,4.1-2c1.8-0.2,3.5,0,5,1c1.8,1.1,2.8,2.8,3.2,4.8
		C58.9,21.6,58.6,23.7,57.3,25.6z"/>
	<path class="st14" d="M34.3,46.2c0,0.2,0,0.3,0,0.5c-0.1,0.3-0.3,0.5-0.6,0.5c-0.3,0-0.5-0.1-0.6-0.5c-0.1-0.3-0.1-0.7,0-1
		c0.1-0.3,0.3-0.5,0.6-0.5c0.3,0,0.5,0.1,0.6,0.5C34.3,45.9,34.3,46,34.3,46.2z"/>
	<path class="st14" d="M16.4,46.2c0-0.2,0-0.3,0.1-0.5c0.1-0.3,0.3-0.4,0.6-0.4c0.3,0,0.5,0.1,0.6,0.4c0.1,0.3,0.1,0.7,0,1.1
		c-0.1,0.3-0.3,0.5-0.6,0.5c-0.3,0-0.5-0.1-0.6-0.4C16.4,46.6,16.4,46.4,16.4,46.2z"/>
	<path class="st18" d="M48.6,46.3C48.6,46.3,48.6,46.3,48.6,46.3c0.2,0.1,0.4-0.1,0.5,0.1c0.1,0.4-0.1,0.7-0.4,0.8
		c-0.2,0.1-0.4,0.1-0.6,0c-0.2-0.1-0.3-0.2-0.3-0.4c0-0.2,0.1-0.4,0.4-0.4C48.3,46.3,48.4,46.3,48.6,46.3L48.6,46.3z"/>
	<path class="st18" d="M12,46.1h-0.4c-0.3,0-0.4,0-0.2-0.4c0.1-0.3,0.4-0.5,0.7-0.5c0.3,0.1,0.6,0.4,0.6,0.7c0,0.1-0.1,0.1-0.2,0.1
		C12.3,46.1,12.2,46.1,12,46.1z"/>
	<path class="st18" d="M23,46.1c-0.1,0-0.3,0-0.4,0c-0.3,0-0.3-0.1-0.2-0.3c0.1-0.4,0.4-0.6,0.7-0.5c0.3,0,0.6,0.3,0.6,0.7
		c0,0.1,0,0.2-0.2,0.2C23.3,46.1,23.2,46.1,23,46.1z"/>
	<path class="st18" d="M25.6,46.1c-0.2,0-0.3,0-0.5,0c-0.2,0-0.2-0.1-0.2-0.2c0.1-0.4,0.4-0.6,0.7-0.6c0.3,0,0.6,0.3,0.6,0.6
		c0,0.2,0,0.2-0.2,0.2C25.9,46.1,25.7,46.1,25.6,46.1z"/>
	<path class="st14" d="M55.3,46.2c0,0.2,0,0.4-0.1,0.6c-0.1,0.3-0.3,0.5-0.6,0.5c-0.3,0-0.5-0.1-0.6-0.4c-0.1-0.4-0.1-0.7,0-1.1
		c0.1-0.3,0.3-0.5,0.6-0.5c0.3,0,0.5,0.2,0.6,0.5C55.3,45.9,55.3,46.1,55.3,46.2z"/>
	<path class="st14" d="M40.7,46.3c0,0.2,0,0.4-0.1,0.6c0,0.1-0.1,0.2-0.2,0.3c-0.1,0.1-0.2,0.1-0.4,0.1c-0.3,0-0.5-0.1-0.6-0.4
		c-0.1-0.4-0.1-0.8,0-1.2c0.1-0.3,0.3-0.4,0.6-0.4c0.3,0,0.5,0.2,0.6,0.4C40.7,45.9,40.7,46.1,40.7,46.3z"/>
	<path class="st0" d="M13,39.5C13,39.5,13,39.5,13,39.5c0.2,0.1,0.4-0.1,0.5,0.1c0.1,0.4-0.1,0.8-0.4,0.9c-0.2,0.1-0.5,0.1-0.8,0
		c-0.3-0.1-0.4-0.2-0.4-0.5c0-0.3,0.1-0.5,0.4-0.5C12.6,39.5,12.8,39.5,13,39.5z"/>
	<path class="st0" d="M50,39.5c0.6,0,0.6,0.1,0.5,0.6c0,0.1-0.1,0.2-0.1,0.2c-0.1,0.1-0.2,0.1-0.2,0.1c-0.2,0.1-0.5,0.1-0.7,0
		c-0.3-0.1-0.4-0.2-0.4-0.5c0-0.3,0.1-0.5,0.4-0.5c0,0,0.1,0,0.1,0C49.7,39.5,49.9,39.5,50,39.5z"/>
	<path class="st0" d="M39.6,39.1c-0.2,0-0.4,0-0.6,0c-0.2,0-0.3-0.1-0.2-0.3c0.1-0.5,0.4-0.7,0.9-0.7c0.4,0,0.7,0.3,0.7,0.8
		c0,0.1,0,0.2-0.1,0.2C40,39.1,39.8,39.1,39.6,39.1z"/>
</g>
</svg>
